{
  "asset": {
    "version": "2.0",
    "generator": "智达云GLTF导出引擎",
    "copyright": "2022 (c) 山西云联智达网络科技有限公司"
  },
  "scene": 0,
  "scenes": [
    {
      "nodes": [
        0
      ]
    }
  ],
  "samplers": [
    {
    }
  ],
  "nodes": [
    {
      "name": "root",
      "matrix": [
        0.0254,
        1.9046949239805592e-34,
        6.221205739668554e-18,
        0.0,
        6.221205739668554e-18,
        -1.5553014349171385e-18,
        -0.0254,
        0.0,
        1.9046949239805592e-34,
        0.0254,
        -1.5553014349171385e-18,
        0.0,
        0.0,
        0.0,
        0.0,
        1.0
      ],
      "children": [
        1,
        3,
        5,
        7,
        9,
        11
      ],
      "mesh": 6
    },
    {
      "name": "information_flour.dwg",
      "matrix": [
        1.0,
        0.0,
        0.0,
        0.0,
        0.0,
        1.0,
        0.0,
        0.0,
        0.0,
        0.0,
        1.0,
        0.0,
        -1478.8808208971752,
        3035.0729768742303,
        -1326.6535433070856,
        1.0
      ],
      "children": [
        2
      ]
    },
    {
      "name": "缁勪欢#1",
      "matrix": [
        1.0,
        0.0,
        0.0,
        0.0,
        0.0,
        1.0,
        0.0,
        0.0,
        0.0,
        0.0,
        1.0,
        0.0,
        -6402.851374260772,
        -1316.86287268477,
        0.0,
        1.0
      ],
      "mesh": 0
    },
    {
      "name": "information_flour.dwg",
      "matrix": [
        1.0,
        0.0,
        0.0,
        0.0,
        0.0,
        1.0,
        0.0,
        0.0,
        0.0,
        0.0,
        1.0,
        0.0,
        -1478.8808208971752,
        3035.0729768742303,
        -1326.6535433070856,
        1.0
      ],
      "children": [
        4
      ]
    },
    {
      "name": "缁勪欢#1",
      "matrix": [
        1.0,
        0.0,
        0.0,
        0.0,
        0.0,
        1.0,
        0.0,
        0.0,
        0.0,
        0.0,
        1.0,
        0.0,
        -6402.851374260772,
        -1316.86287268477,
        0.0,
        1.0
      ],
      "mesh": 1
    },
    {
      "name": "information_flour.dwg",
      "matrix": [
        1.0,
        0.0,
        0.0,
        0.0,
        0.0,
        1.0,
        0.0,
        0.0,
        0.0,
        0.0,
        1.0,
        0.0,
        -1478.8808208971752,
        3035.0729768742303,
        -494.2125984251958,
        1.0
      ],
      "children": [
        6
      ]
    },
    {
      "name": "缁勪欢#1",
      "matrix": [
        1.0,
        0.0,
        0.0,
        0.0,
        0.0,
        1.0,
        0.0,
        0.0,
        0.0,
        0.0,
        1.0,
        0.0,
        -6402.851374260772,
        -1316.86287268477,
        0.0,
        1.0
      ],
      "mesh": 2
    },
    {
      "name": "information_flour.dwg",
      "matrix": [
        1.0,
        0.0,
        0.0,
        0.0,
        0.0,
        1.0,
        0.0,
        0.0,
        0.0,
        0.0,
        1.0,
        0.0,
        -1478.8808208971752,
        3035.0729768742303,
        -77.99212598425083,
        1.0
      ],
      "children": [
        8
      ]
    },
    {
      "name": "缁勪欢#1",
      "matrix": [
        1.0,
        0.0,
        0.0,
        0.0,
        0.0,
        1.0,
        0.0,
        0.0,
        0.0,
        0.0,
        1.0,
        0.0,
        -6402.851374260772,
        -1316.86287268477,
        0.0,
        1.0
      ],
      "mesh": 3
    },
    {
      "name": "information_flour.dwg",
      "matrix": [
        1.0,
        0.0,
        0.0,
        0.0,
        0.0,
        1.0,
        0.0,
        0.0,
        0.0,
        0.0,
        1.0,
        0.0,
        -1478.8808208971752,
        3035.0729768742303,
        -910.4330708661407,
        1.0
      ],
      "children": [
        10
      ]
    },
    {
      "name": "缁勪欢#1",
      "matrix": [
        1.0,
        0.0,
        0.0,
        0.0,
        0.0,
        1.0,
        0.0,
        0.0,
        0.0,
        0.0,
        1.0,
        0.0,
        -6402.851374260772,
        -1316.86287268477,
        0.0,
        1.0
      ],
      "mesh": 4
    },
    {
      "name": "information_flour.dwg",
      "matrix": [
        1.0,
        0.0,
        0.0,
        0.0,
        0.0,
        1.0,
        0.0,
        0.0,
        0.0,
        0.0,
        1.0,
        0.0,
        -1478.8808208971752,
        3035.0729768742303,
        338.228346456694,
        1.0
      ],
      "children": [
        12
      ]
    },
    {
      "name": "缁勪欢#1",
      "matrix": [
        1.0,
        0.0,
        0.0,
        0.0,
        0.0,
        1.0,
        0.0,
        0.0,
        0.0,
        0.0,
        1.0,
        0.0,
        -6402.851374260772,
        -1316.86287268477,
        0.0,
        1.0
      ],
      "mesh": 5
    }
  ],
  "materials": [
    {
      "pbrMetallicRoughness": {
        "baseColorTexture": {
          "index": 0
        },
        "metallicFactor": 0.1,
        "roughnessFactor": 0.9
      },
      "name": "二顺二丁砖块图案",
      "doubleSided": true
    },
    {
      "pbrMetallicRoughness": {
        "baseColorFactor": [
          1.0,
          1.0,
          1.0,
          1.0
        ],
        "metallicFactor": 0.1,
        "roughnessFactor": 0.9
      },
      "name": "<auto>",
      "doubleSided": true
    },
    {
      "pbrMetallicRoughness": {
        "baseColorTexture": {
          "index": 1
        },
        "metallicFactor": 0.1,
        "roughnessFactor": 0.9
      },
      "name": "半透明安全玻璃",
      "doubleSided": true,
      "alphaMode": "BLEND"
    },
    {
      "pbrMetallicRoughness": {
        "baseColorFactor": [
          0.2176,
          0.2176,
          0.2176,
          1.0
        ],
        "metallicFactor": 0.1,
        "roughnessFactor": 0.9
      },
      "name": "default material",
      "doubleSided": true
    }
  ],
  "images": [
    {
      "bufferView": 0,
      "mimeType": "image/jpeg"
    },
    {
      "bufferView": 1,
      "mimeType": "image/jpeg"
    }
  ],
  "textures": [
    {
      "source": 0,
      "sampler": 0
    },
    {
      "source": 1,
      "sampler": 0
    }
  ],
  "meshes": [
    {
      "primitives": [
        {
          "attributes": {
            "POSITION": 0,
            "NORMAL": 1
          },
          "indices": 5,
          "mode": 4,
          "material": 1
        }
      ]
    },
    {
      "primitives": [
        {
          "attributes": {
            "POSITION": 0,
            "NORMAL": 1
          },
          "indices": 6,
          "mode": 4,
          "material": 1
        }
      ]
    },
    {
      "primitives": [
        {
          "attributes": {
            "POSITION": 0,
            "NORMAL": 1
          },
          "indices": 7,
          "mode": 4,
          "material": 1
        }
      ]
    },
    {
      "primitives": [
        {
          "attributes": {
            "POSITION": 0,
            "NORMAL": 1
          },
          "indices": 8,
          "mode": 4,
          "material": 1
        }
      ]
    },
    {
      "primitives": [
        {
          "attributes": {
            "POSITION": 0,
            "NORMAL": 1
          },
          "indices": 9,
          "mode": 4,
          "material": 1
        }
      ]
    },
    {
      "primitives": [
        {
          "attributes": {
            "POSITION": 0,
            "NORMAL": 1
          },
          "indices": 10,
          "mode": 4,
          "material": 1
        }
      ]
    },
    {
      "primitives": [
        {
          "attributes": {
            "POSITION": 2,
            "NORMAL": 3,
            "TEXCOORD_0": 4
          },
          "indices": 11,
          "mode": 4,
          "material": 0
        },
        {
          "attributes": {
            "POSITION": 2,
            "NORMAL": 3,
            "TEXCOORD_0": 4
          },
          "indices": 12,
          "mode": 4,
          "material": 2
        },
        {
          "attributes": {
            "POSITION": 0,
            "NORMAL": 1
          },
          "indices": 13,
          "mode": 4,
          "material": 3
        }
      ]
    }
  ],
  "accessors": [
    {
      "bufferView": 2,
      "componentType": 5126,
      "count": 56,
      "type": "VEC3",
      "min": [
        -664.583318248269,
        1316.86287268477,
        -1326.6535433070856
      ],
      "max": [
        9497.33956323715,
        4934.973108905243,
        0.0
      ]
    },
    {
      "bufferView": 3,
      "componentType": 5126,
      "count": 56,
      "type": "VEC3",
      "min": [
        -0.0,
        -1.0,
        -1.0
      ],
      "max": [
        0.4228854653308774,
        -0.0,
        1.0
      ]
    },
    {
      "bufferView": 4,
      "componentType": 5126,
      "count": 1721,
      "type": "VEC3",
      "min": [
        -1478.8808208971752,
        3035.0729768742303,
        -1326.6535433070856
      ],
      "max": [
        1615.607368079203,
        6653.183213094703,
        751.6141732283477
      ]
    },
    {
      "bufferView": 5,
      "componentType": 5126,
      "count": 1721,
      "type": "VEC3",
      "min": [
        -1.0,
        -1.0,
        -1.0
      ],
      "max": [
        1.0,
        1.0,
        1.0
      ]
    },
    {
      "bufferView": 6,
      "componentType": 5126,
      "count": 1721,
      "type": "VEC2",
      "min": [
        -399.6964025711151,
        -548.2973875496345
      ],
      "max": [
        442.4348003459805,
        150.7703412073489
      ]
    },
    {
      "bufferView": 7,
      "componentType": 5121,
      "count": 99,
      "type": "SCALAR"
    },
    {
      "bufferView": 7,
      "componentType": 5121,
      "count": 99,
      "type": "SCALAR",
      "byteOffset": 99
    },
    {
      "bufferView": 7,
      "componentType": 5121,
      "count": 99,
      "type": "SCALAR",
      "byteOffset": 198
    },
    {
      "bufferView": 7,
      "componentType": 5121,
      "count": 99,
      "type": "SCALAR",
      "byteOffset": 297
    },
    {
      "bufferView": 7,
      "componentType": 5121,
      "count": 99,
      "type": "SCALAR",
      "byteOffset": 396
    },
    {
      "bufferView": 7,
      "componentType": 5121,
      "count": 99,
      "type": "SCALAR",
      "byteOffset": 495
    },
    {
      "bufferView": 8,
      "componentType": 5123,
      "count": 3909,
      "type": "SCALAR"
    },
    {
      "bufferView": 8,
      "componentType": 5123,
      "count": 48,
      "type": "SCALAR",
      "byteOffset": 7818
    },
    {
      "bufferView": 7,
      "componentType": 5121,
      "count": 45,
      "type": "SCALAR",
      "byteOffset": 594
    }
  ],
  "bufferViews": [
    {
      "buffer": 0,
      "byteLength": 9445
    },
    {
      "buffer": 0,
      "byteOffset": 9445,
      "byteLength": 6047
    },
    {
      "buffer": 0,
      "byteOffset": 15492,
      "byteLength": 672,
      "target": 34962,
      "byteStride": 12
    },
    {
      "buffer": 0,
      "byteOffset": 16164,
      "byteLength": 672,
      "target": 34962,
      "byteStride": 12
    },
    {
      "buffer": 0,
      "byteOffset": 16836,
      "byteLength": 20652,
      "target": 34962,
      "byteStride": 12
    },
    {
      "buffer": 0,
      "byteOffset": 37488,
      "byteLength": 20652,
      "target": 34962,
      "byteStride": 12
    },
    {
      "buffer": 0,
      "byteOffset": 58144,
      "byteLength": 13768,
      "target": 34962,
      "byteStride": 8
    },
    {
      "buffer": 0,
      "byteOffset": 71912,
      "byteLength": 639,
      "target": 34963
    },
    {
      "buffer": 0,
      "byteOffset": 72552,
      "byteLength": 7914,
      "target": 34963
    }
  ],
  "buffers": [
    {
      "uri": "data:application/octet-stream;base64,",
      "byteLength": 80466
    }
  ]
}